<svg xmlns="http://www.w3.org/2000/svg" viewBox="0 0 1919.01 156.6"><defs><style>.cls-1{fill:#fff;}</style></defs><title>Subtraction 1 (2)</title><g id="Layer_2" data-name="Layer 2"><g id="Layer_1-2" data-name="Layer 1"><path id="Subtraction_1" data-name="Subtraction 1" class="cls-1" d="M1919,156.6H0V24.14c3.24-.56,20.86-3.46,49.6-6.22,105.24-10.13,212.08-6.2,316.52,9.9C471.24,44,575.47,69.53,677.35,99.86c7.07,2.1,14.19,4,21.26,6.06,100.16,29.21,206.28,43.82,310.86,45.18q9,.1,17.92.11a1488.78,1488.78,0,0,0,247.06-21.07c50.57-8.54,99.11-17.78,144.29-27.46,39-8.36,76.93-17.35,112.62-26.71,43.48-11.4,86.54-24.24,129.31-38.08,46.73-15.12,91.62-31,141-35.92,39-3.85,78.66-1.88,117.29,4.42C1919,19.83,1919,156.6,1919,156.6Z"/></g></g></svg>